<?xml version="1.0" encoding="UTF-8"?>
<svg xmlns="http://www.w3.org/2000/svg" version="1.1" viewBox="0 0 1920 1920">
  <!-- Generator: Adobe Illustrator 30.7.0, SVG Export Plug-In . SVG Version: 2.1.4 Build 114)  -->
  <defs>
    <style>
      .st0 {
        font-family: Inter-Regular, Inter;
        font-size: 120.1px;
      }

      .st0, .st1 {
        fill: #fff;
      }

      .st2 {
        stroke-width: 11px;
      }

      .st2, .st3 {
        fill: none;
        stroke: #fff;
      }

      .st2, .st3, .st4 {
        stroke-miterlimit: 10;
      }

      .st5 {
        display: none;
        fill: #1a1c20;
      }

      .st3, .st4 {
        stroke-width: 4px;
      }

      .st4 {
        fill: #63d2c3;
        stroke: #63d2c3;
      }
    </style>
  </defs>
  <g id="_x23_body">
    <rect class="st5" x="106.6" y="103.7" width="1706.8" height="1712.6" rx="259.3" ry="259.3"/>
    <line class="st3" x1="674.7" y1="103.7" x2="674.7" y2="1816.3"/>
    <line class="st3" x1="1816.3" y1="444.5" x2="103.7" y2="444.5"/>
    <line class="st3" x1="1816.3" y1="787.3" x2="103.7" y2="787.3"/>
    <line class="st3" x1="1816.3" y1="1130.2" x2="103.7" y2="1130.2"/>
    <line class="st3" x1="1816.3" y1="1473" x2="103.7" y2="1473"/>
    <line class="st3" x1="1245.3" y1="103.7" x2="1245.3" y2="1816.3"/>
  </g>
  <g id="_x23_legends">
    <circle class="st1" cx="960" cy="272.1" r="47.8"/>
    <g>
      <line class="st2" x1="324" y1="280" x2="455" y2="280"/>
      <line class="st2" x1="1465" y1="280" x2="1596" y2="280"/>
    </g>
    <text class="st0" transform="translate(356.3 675.2)"><tspan x="0" y="0">1</tspan></text>
    <text class="st0" transform="translate(923.7 675.2)"><tspan x="0" y="0">2</tspan></text>
    <text class="st0" transform="translate(1484.8623 675.2339)"><tspan x="0" y="0">3</tspan></text>
    <text class="st0" transform="translate(345.626 1001.1401)"><tspan x="0" y="0">4</tspan></text>
    <text class="st0" transform="translate(923.4927 1001.1401)"><tspan x="0" y="0">5</tspan></text>
    <text class="st0" transform="translate(1485.6299 1001.1401)"><tspan x="0" y="0">6</tspan></text>
    <text class="st0" transform="translate(349.8911 1344.0444)"><tspan x="0" y="0">7</tspan></text>
    <text class="st0" transform="translate(922.9805 1344.0444)"><tspan x="0" y="0">8</tspan></text>
    <text class="st0" transform="translate(1485.6299 1344.0444)"><tspan x="0" y="0">9</tspan></text>
    <text class="st0" transform="translate(354.1558 1692.4382)"><tspan x="0" y="0">*</tspan></text>
    <text class="st0" transform="translate(922.4683 1676.4382)"><tspan x="0" y="0">0</tspan></text>
    <text class="st0" transform="translate(1485.2031 1676.4382)"><tspan x="0" y="0">#</tspan></text>
  </g>
  <g id="_x23_buttons">
    <rect id="KEYCODE_x5F_2" class="st4" x="678.6" y="1477" width="562.7" height="337.3"/>
    <rect id="KEYCODE_x5F_0" class="st4" x="678.6" y="1134.1" width="562.7" height="335.3"/>
    <rect id="KEYCODE_x5F_01" data-name="KEYCODE_x5F_0" class="st4" x="678.6" y="791.4" width="562.7" height="334.5"/>
    <rect id="KEYCODE_x5F_02" data-name="KEYCODE_x5F_0" class="st4" x="678.6" y="449" width="562.7" height="334.2"/>
    <path id="KEYCODE_x5F_STAR" class="st4" d="M108.6,1477h561.9v337.3h-305.7c-141.4,0-256.2-114.8-256.2-256.2v-81.1h0Z"/>
    <rect id="KEYCODE_x5F_7" class="st4" x="108.6" y="1134.1" width="561.9" height="335.3"/>
    <rect id="KEYCODE_x5F_4" class="st4" x="108.6" y="791.4" width="561.9" height="334.5"/>
    <rect id="KEYCODE_x5F_1" class="st4" x="108.6" y="449" width="561.9" height="334.2"/>
    <path id="KEYCODE_x5F_POUND" class="st4" d="M1505.7,1477h305.7v337.3h-561.9v-81.1c0-141.4,114.8-256.2,256.2-256.2Z" transform="translate(3060.8718 3291.3011) rotate(-180)"/>
    <rect id="KEYCODE_x5F_9" class="st4" x="1249.5" y="1134.1" width="561.9" height="335.3" transform="translate(3060.8718 2603.5971) rotate(-180)"/>
    <rect id="KEYCODE_x5F_6" class="st4" x="1249.5" y="791.4" width="561.9" height="334.5" transform="translate(3060.8718 1917.3856) rotate(-180)"/>
    <rect id="KEYCODE_x5F_3" class="st4" x="1249.5" y="449" width="561.9" height="334.2" transform="translate(3060.8718 1232.1621) rotate(-180)"/>
  </g>
</svg>